PathFileType	4	(X/Y/Z)	C:\Users\Basilio\Documents\Thesis Gigler\squatting_fais\c3dfiles\039\SLS_pre_back3\markers_experimental.trc
DataRate	CameraRate	NumFrames	NumMarkers	Units	OrigDataRate	OrigDataStartFrame	OrigNumFrames
200.000000	200.000000	4	64	mm	200.000000	1903	2175
Frame#	Time	FHD			LBHD			RBHD			C7			T10			CLAV			LSHO			LUUPA			LMUPA			LDUPA			LLEP			LMEP			LRAD			LUL			LRFIN			RSHO			RUPA1			RMUPA			RDUPA			RLEP			RMEP			RRAD			RUL			RUFIN			LASI			RASI			USACR			LSACR			RSACR			LTHI1			LTHI2			LTHI3			LTHI4			LLFC			LMFC			LTIB1			LTIB2			LTIB3			LTIB4			LLMAL			LMMAL			LHEE			LMT1			LMT2			LMT5			RTHI			RTHI2			RTHI3			RTHI4			RLFC			RMFC			RTIB1			RTIB2			RTIB3			RTIB4			RLMAL			RMMAL			RHEE			RMT1			RMT2			RMT5			*61			*62			*63			
		X1	Y1	Z1	X2	Y2	Z2	X3	Y3	Z3	X4	Y4	Z4	X5	Y5	Z5	X6	Y6	Z6	X7	Y7	Z7	X8	Y8	Z8	X9	Y9	Z9	X10	Y10	Z10	X11	Y11	Z11	X12	Y12	Z12	X13	Y13	Z13	X14	Y14	Z14	X15	Y15	Z15	X16	Y16	Z16	X17	Y17	Z17	X18	Y18	Z18	X19	Y19	Z19	X20	Y20	Z20	X21	Y21	Z21	X22	Y22	Z22	X23	Y23	Z23	X24	Y24	Z24	X25	Y25	Z25	X26	Y26	Z26	X27	Y27	Z27	X28	Y28	Z28	X29	Y29	Z29	X30	Y30	Z30	X31	Y31	Z31	X32	Y32	Z32	X33	Y33	Z33	X34	Y34	Z34	X35	Y35	Z35	X36	Y36	Z36	X37	Y37	Z37	X38	Y38	Z38	X39	Y39	Z39	X40	Y40	Z40	X41	Y41	Z41	X42	Y42	Z42	X43	Y43	Z43	X44	Y44	Z44	X45	Y45	Z45	X46	Y46	Z46	X47	Y47	Z47	X48	Y48	Z48	X49	Y49	Z49	X50	Y50	Z50	X51	Y51	Z51	X52	Y52	Z52	X53	Y53	Z53	X54	Y54	Z54	X55	Y55	Z55	X56	Y56	Z56	X57	Y57	Z57	X58	Y58	Z58	X59	Y59	Z59	X60	Y60	Z60	X61	Y61	Z61	X62	Y62	Z62	X63	Y63	Z63	X64	Y64	Z64	

1904	9.515000000000001	-272.6635742187501	1791.108032226563	-649.6616821289064	-423.7884826660157	1755.546020507813	-774.790466308594	-400.1734619140626	1752.674560546875	-635.3105468750001	-451.1495056152345	1591.9404296875	-728.1196899414064	-460.9106445312501	1282.504760742188	-773.8061523437502	-304.2672119140626	1527.523193359375	-736.6223754882814	-369.2160339355469	1589.56298828125	-911.7021484375002	-333.4029235839844	1407.207763671875	-1057.409545898438	-284.5647277832032	1417.873779296875	-1058.314208984375	-286.8332214355469	1365.869995117188	-1088.778076171875	-235.6951446533204	1326.919799804688	-1112.737548828125	-260.1162414550782	1268.365234375	-1055.5751953125	24.36104965209962	1259.38232421875	-991.891784667969	25.89142227172852	1230.659545898438	-1062.956298828125	110.6029586791992	1243.822021484375	-979.6148071289065	-331.5960388183594	1547.333862304688	-551.2052001953126	-244.5636138916016	1362.949829101563	-460.4826660156251	-198.6707916259766	1381.034301757813	-466.5303039550782	-187.9267120361328	1323.429077148438	-453.3491821289064	-124.8759841918946	1303.3896484375	-450.9851074218751	-146.9004669189453	1253.90185546875	-509.8173217773439	153.496322631836	1258.275390625	-564.9670410156251	154.0377197265625	1223.765747070313	-495.6908569335939	245.0935363769532	1261.97998046875	-561.8742675781251	-296.0451049804688	1107.411865234375	-907.0072021484377	-288.8244628906251	1083.793579101563	-682.7080078125001	-475.8670654296876	1153.912109375	-784.609558105469	-479.4644165039064	1123.724609375	-815.8647460937502	-477.1751098632814	1118.772827148438	-756.5615844726564	-287.3282470703126	846.2147216796877	-1017.168334960938	-229.5289916992188	785.2423095703127	-1029.652465820313	-184.3838043212891	799.6238403320315	-1017.793395996094	-237.5415649414063	724.5584716796876	-1027.044311523438	-203.7908935546876	619.5789794921876	-1032.9375	-172.144775390625	576.7948608398439	-928.5107421875002	-181.9703826904297	467.321990966797	-1041.287719726563	-261.7800292968751	452.322479248047	-1077.133544921875	-222.7456512451172	435.3009338378907	-1067.218017578125	-241.4171905517579	353.3632202148438	-1039.387084960938	-353.3815917968751	213.0204620361329	-1083.951904296875	-326.6156311035157	196.9859466552735	-1001.799621582031	-429.0343322753907	175.6809539794922	-1040.064331054688	-204.7708587646485	106.5330505371094	-1051.268432617188	-214.2537994384766	113.3175277709961	-1093.107666015625	-268.1044006347657	106.9346466064453	-1138.57470703125	-323.6734619140626	810.3189697265627	-637.2450561523439	-278.4284667968751	760.5969848632814	-638.8446044921876	-247.1615753173829	767.2471313476564	-645.8808593750001	-298.5994567871094	678.6116333007814	-657.1999511718751	-320.2297973632813	539.5130004882814	-691.0108032226564	-286.9898071289063	539.7841186523439	-806.8201293945315	-283.3538208007813	328.8660278320313	-721.7961425781251	-369.4716491699219	264.2196044921876	-717.9061279296876	-323.4297790527344	254.6505279541016	-718.5331420898439	-306.3619079589844	208.8020477294922	-754.4260253906251	-373.7384338378907	115.2792892456055	-739.2642211914064	-344.0110473632813	136.8912353515625	-822.4129028320315	-440.2547607421876	95.49891662597658	-793.6428222656252	-214.9476928710938	55.62675857543947	-805.6604614257815	-219.2376556396485	55.83126449584962	-759.5249023437501	-273.9101562500001	35.03829193115235	-708.0640258789064	nan	nan	nan	nan	nan	nan	nan	nan	nan	
1905	9.52	-272.2761230468751	1791.0361328125	-649.4694213867189	-422.9123840332032	1755.60205078125	-775.155700683594	-399.7105407714845	1752.592895507813	-635.5394897460939	-450.3331298828126	1592.026733398438	-728.5856933593751	-461.7885742187501	1282.404663085938	-774.9880981445315	-303.5864257812501	1527.437377929688	-736.7643432617189	-368.1572875976563	1589.438354492188	-912.3355712890627	-334.8913879394532	1405.751098632813	-1057.529418945313	-285.8056945800782	1415.76953125	-1058.803344726563	-288.8161926269532	1363.7001953125	-1089.003662109375	-238.2953796386719	1324.213623046875	-1113.070678710938	-263.2940979003907	1266.009887695313	-1055.480346679688	21.74785041809082	1253.51806640625	-993.174499511719	22.40288925170899	1224.657836914063	-1064.094848632813	107.4068222045899	1236.166748046875	-981.286315917969	-331.1727294921876	1546.770385742188	-551.5390625000001	-245.9817504882813	1360.87451171875	-461.1763000488282	-200.4352416992188	1378	-467.0857543945314	-190.0152587890625	1320.449951171875	-453.3597106933595	-127.1639556884766	1299.917846679688	-451.5234985351564	-149.4493103027344	1250.515625	-510.7216796875001	150.9836578369141	1252.546875	-564.7680053710939	150.7747650146485	1217.700927734375	-495.5668334960939	242.2412109375001	1254.799438476563	-561.0562133789064	-295.3253784179688	1107.412963867188	-907.2605590820315	-288.4619445800782	1083.866088867188	-682.9937133789064	-475.006317138672	1153.750732421875	-785.2615356445315	-478.7648925781251	1124.152465820313	-816.4329833984377	-477.3045654296876	1118.959716796875	-757.2096557617189	-287.1922607421876	846.052917480469	-1017.470336914063	-229.5816955566407	784.7197875976565	-1029.875122070313	-184.4080352783203	798.966735839844	-1017.861328125	-237.8732452392579	724.1851806640626	-1027.291015625	-204.5089874267579	618.9827270507814	-1033.4755859375	-173.1953277587891	575.9202270507814	-928.8560180664065	-181.3973541259766	466.5163879394532	-1041.577514648438	-260.9411926269532	451.2701416015626	-1077.98583984375	-221.6284332275391	434.2970275878907	-1068.09521484375	-240.7066650390626	352.3031616210938	-1040.020874023438	-351.1514282226563	211.6014862060547	-1085.443969726563	-325.1793212890626	195.2664489746094	-1003.483032226563	-426.4322814941407	173.5435028076172	-1042.085205078125	-202.3811187744141	104.9903182983399	-1051.790771484375	-210.2940063476563	111.8628463745117	-1093.088500976563	-265.5592346191407	105.7215423583985	-1139.641845703125	-323.5450134277344	810.441345214844	-637.4533081054689	-278.2844543457032	760.5893554687501	-639.0623779296876	-247.0160369873047	767.2885131835939	-646.1663818359376	-298.5518188476563	678.6591796875001	-657.3792114257814	-320.0820922851563	539.5228881835939	-691.1859130859376	-286.8731994628907	539.7391357421876	-807.0100708007815	-283.3166503906251	328.8958740234376	-721.9498901367189	-369.5090637207032	264.2252197265626	-718.0234985351564	-323.4198303222657	254.6668243408204	-718.5760498046876	-306.4089660644532	208.8216400146485	-754.4656372070314	-373.7306518554688	115.2605895996094	-739.2747802734376	-344.0179748535157	136.8817291259766	-822.3929443359377	-440.1889953613282	95.47061157226564	-793.5883789062502	-214.9642944335938	55.63413238525392	-805.6997070312502	-219.2943115234376	55.88134002685548	-759.5186767578126	-273.9363098144532	35.04584503173829	-708.0888061523439	nan	nan	nan	nan	nan	nan	nan	nan	nan	
1906	9.525	-271.7966003417969	1791.062255859375	-649.3985595703126	-422.2032470703126	1755.609252929688	-775.4440917968752	-399.3368530273439	1752.454956054688	-635.7539062500001	-449.7290344238282	1592.218505859375	-729.0592041015626	-461.2408752441407	1282.421142578125	-775.4932861328127	-303.0401916503907	1527.348388671875	-736.9206542968751	-367.0967102050782	1589.243408203125	-912.9301757812502	-336.1271362304688	1404.445678710938	-1057.635009765625	-287.1354064941407	1413.85791015625	-1059.122192382813	-290.9137878417969	1361.689086914063	-1089.06494140625	-240.9039154052735	1321.39892578125	-1113.35302734375	-266.7369384765626	1264.013061523438	-1055.382446289063	18.84019088745118	1247.783569335938	-994.5003051757815	18.56427383422852	1218.47119140625	-1065.323974609375	104.2917785644532	1228.5078125	-982.7537841796877	-330.8117065429688	1546.124389648438	-551.9946289062501	-248.1043853759766	1358.325561523438	-462.0679321289064	-201.7357177734376	1375.912475585938	-466.9008789062501	-192.1248168945313	1317.72900390625	-453.9375305175782	-129.5653839111328	1296.388549804688	-451.8999023437501	-152.1544189453125	1248.291625976563	-511.1209716796876	148.3069152832032	1246.566650390625	-564.4125976562501	146.8148193359375	1210.87744140625	-496.205535888672	239.6443328857422	1248.093627929688	-560.4877319335939	-294.4259338378907	1107.607177734375	-907.6835937500002	-288.1674804687501	1083.885009765625	-683.2423706054689	-473.8602294921876	1153.936645507813	-786.045837402344	-478.3445739746095	1124.155883789063	-816.9130859375002	-476.6730346679689	1118.967895507813	-757.6442871093751	-287.0014953613282	845.8801269531252	-1017.711181640625	-229.6603698730469	784.1800537109377	-1030.133666992188	-184.4990997314453	798.4636230468752	-1017.947631835938	-238.1136322021485	723.7897949218751	-1027.551025390625	-205.2742919921876	618.3138427734376	-1034.052490234375	-173.9231567382813	575.1522216796876	-929.097106933594	-181.2642517089844	465.6963195800782	-1041.82177734375	-260.6063232421876	450.2645568847657	-1078.860717773438	-222.1302490234376	432.7824096679689	-1068.508544921875	-239.3888244628907	351.6864318847657	-1040.666748046875	-349.0284423828126	209.4958801269532	-1087.097412109375	-323.6281127929688	193.7442779541016	-1004.905883789063	-424.4234619140626	171.5485992431641	-1044.024047851563	-200.2310333251954	104.2445068359375	-1052.185424804688	-207.4658203125001	110.5802078247071	-1093.717163085938	-262.6647644042969	104.0378570556641	-1140.580810546875	-323.3569641113282	810.4465332031252	-637.6256713867189	-278.1315002441407	760.5685424804689	-639.3340454101564	-246.9192047119141	767.2674560546876	-646.3746948242189	-298.4033203125001	678.6755981445314	-657.5849609375001	-319.9992980957032	539.6596069335939	-691.4645385742189	-286.8682556152344	539.7645263671876	-807.269714355469	-283.2829284667969	328.8770446777344	-722.0401000976564	-369.6657714843751	263.8356628417969	-718.1915283203126	-323.3606872558594	254.6846160888672	-718.6253662109376	-306.3661499023438	208.8296051025391	-754.5440063476564	-373.6878356933594	115.3316955566407	-739.3034057617189	-343.9705810546876	136.8412017822266	-822.4087524414065	-440.2200317382814	95.4658660888672	-793.612731933594	-214.998764038086	55.61411666870119	-805.6114501953127	-219.3049621582032	55.84849166870119	-759.5435791015626	-273.9349670410157	35.04501724243165	-708.0662231445314	nan	nan	nan	nan	nan	nan	nan	nan	nan	
1907	9.529999999999999	-271.3543090820313	1790.9833984375	-649.3057250976564	-422.2053527832032	1755.833618164063	-775.9361572265627	-398.944549560547	1752.175903320313	-635.9315185546876	-449.0759277343751	1592.458618164063	-729.6383056640626	-460.5363159179689	1282.464477539063	-776.035827636719	-302.2680969238282	1527.40576171875	-737.3701782226564	-366.1764221191407	1589.148559570313	-913.6381835937502	-337.2834777832032	1403.011474609375	-1057.632202148438	-288.2151184082032	1411.947875976563	-1059.62353515625	-292.9317626953126	1359.79345703125	-1089.237915039063	-243.5897674560547	1318.648193359375	-1113.526733398438	-269.3557128906251	1261.764282226563	-1055.2451171875	16.67607116699219	1242.096069335938	-995.7935180664065	14.65231513977051	1212.4306640625	-1066.593505859375	100.9709625244141	1220.741821289063	-984.6797485351565	-330.4976501464844	1545.748901367188	-552.1524658203126	-249.3777465820313	1356.61669921875	-462.4224548339845	-203.5819091796876	1373.271850585938	-467.6342163085939	-194.3466186523438	1315.150512695313	-455.0867004394532	-132.0403442382813	1293.026977539063	-452.093231201172	-154.8094635009766	1245.465209960938	-511.955535888672	145.6839752197266	1240.14794921875	-564.2445068359376	143.56005859375	1204.74462890625	-496.301239013672	236.9578857421876	1240.62890625	-560.0832519531251	-293.5217590332032	1107.641845703125	-907.991149902344	-287.7383728027344	1083.990112304688	-683.4697875976564	-473.165740966797	1154.020385742188	-786.6315917968752	-477.5991821289064	1124.211059570313	-817.3851318359377	-476.0791320800782	1119.163940429688	-758.2301025390626	-286.9047241210938	845.7078247070315	-1018.081481933594	-229.7272033691407	783.8195800781252	-1030.329956054688	-184.431640625	797.9090576171877	-1018.068481445313	-238.5167846679688	723.3480224609376	-1027.841430664063	-205.6984405517579	617.5560302734376	-1034.459106445313	-175.0740356445313	574.3603515625001	-929.432800292969	-181.0973663330078	464.8268432617189	-1042.113525390625	-259.8357849121094	449.3682861328126	-1079.601318359375	-221.0661315917969	432.4786376953126	-1069.00390625	-238.4631805419922	350.6973876953126	-1041.493286132813	-347.0660705566407	208.1509399414063	-1088.454467773438	-321.6920166015626	192.7669372558594	-1006.020935058594	-422.6693420410157	169.3613891601563	-1045.970336914063	-197.9954833984376	102.1599044799805	-1052.864013671875	-205.0002899169922	109.1416168212891	-1094.079223632813	-260.0469055175782	102.4054336547852	-1141.21630859375	-323.1423034667969	810.5564575195315	-637.8704223632814	-277.9366760253907	760.6683959960939	-639.5515747070314	-246.7687683105469	767.2585449218751	-646.5563964843751	-298.2135925292969	678.6749877929689	-657.7997436523439	-319.9094848632813	539.6660766601564	-691.6925048828126	-286.7468261718751	539.7200317382814	-807.4324340820315	-283.2396850585938	328.8741149902344	-722.2059936523439	-369.4353942871094	264.2756652832032	-718.2709960937501	-323.3533935546876	254.6831359863282	-718.6722412109376	-306.3246765136719	208.8536682128907	-754.5620727539064	-373.7063903808594	115.3356018066407	-739.2969360351564	-343.9634399414063	136.8678894042969	-822.403747558594	-440.2117919921876	95.47222900390626	-793.6099243164065	-214.9095916748047	55.66117477416994	-805.588073730469	-219.3220520019532	55.83667373657228	-759.5509643554689	-273.9589233398438	35.02836990356446	-708.0162353515626	nan	nan	nan	nan	nan	nan	nan	nan	nan	
